<mxfile host="app.diagrams.net" modified="2021-07-15T11:37:13.337Z" agent="5.0 (Windows NT 10.0; Win64; x64) AppleWebKit/537.36 (KHTML, like Gecko) Chrome/91.0.4472.124 Safari/537.36" etag="j-jjBJYbL1DTD1hzhKoL" version="14.8.5" type="github">
  <diagram id="Ed_Otapiw7LvaEUzShrA" name="Page-1">
    <mxGraphModel dx="1810" dy="1637" grid="1" gridSize="10" guides="1" tooltips="1" connect="1" arrows="1" fold="1" page="1" pageScale="1" pageWidth="827" pageHeight="1169" math="0" shadow="0">
      <root>
        <mxCell id="0" />
        <mxCell id="1" parent="0" />
        <mxCell id="vWSoqRxwltatWeiuWFKI-8" value="Actor" style="shape=umlActor;verticalLabelPosition=bottom;verticalAlign=top;html=1;outlineConnect=0;" vertex="1" parent="1">
          <mxGeometry x="-790" y="-960" width="30" height="60" as="geometry" />
        </mxCell>
        <mxCell id="vWSoqRxwltatWeiuWFKI-9" value="Actor" style="shape=umlActor;verticalLabelPosition=bottom;verticalAlign=top;html=1;outlineConnect=0;" vertex="1" parent="1">
          <mxGeometry x="-790" y="-850" width="30" height="60" as="geometry" />
        </mxCell>
        <mxCell id="vWSoqRxwltatWeiuWFKI-10" value="Actor" style="shape=umlActor;verticalLabelPosition=bottom;verticalAlign=top;html=1;outlineConnect=0;" vertex="1" parent="1">
          <mxGeometry x="-790" y="-730" width="30" height="60" as="geometry" />
        </mxCell>
        <mxCell id="vWSoqRxwltatWeiuWFKI-20" value="Amazon DynamoDB" style="outlineConnect=0;fontColor=#232F3E;gradientColor=none;strokeColor=#ffffff;fillColor=#232F3E;dashed=0;verticalLabelPosition=middle;verticalAlign=bottom;align=center;html=1;whiteSpace=wrap;fontSize=10;fontStyle=1;spacing=3;shape=mxgraph.aws4.productIcon;prIcon=mxgraph.aws4.dynamodb;" vertex="1" parent="1">
          <mxGeometry x="-290" y="-695" width="50" height="80" as="geometry" />
        </mxCell>
        <mxCell id="vWSoqRxwltatWeiuWFKI-21" value="AWS Lambda" style="outlineConnect=0;fontColor=#232F3E;gradientColor=none;strokeColor=#ffffff;fillColor=#232F3E;dashed=0;verticalLabelPosition=middle;verticalAlign=bottom;align=center;html=1;whiteSpace=wrap;fontSize=10;fontStyle=1;spacing=3;shape=mxgraph.aws4.productIcon;prIcon=mxgraph.aws4.lambda;" vertex="1" parent="1">
          <mxGeometry x="-400" y="-695" width="50" height="80" as="geometry" />
        </mxCell>
        <mxCell id="vWSoqRxwltatWeiuWFKI-22" value="Amazon API Gateway" style="outlineConnect=0;fontColor=#232F3E;gradientColor=none;strokeColor=#ffffff;fillColor=#232F3E;dashed=0;verticalLabelPosition=middle;verticalAlign=bottom;align=center;html=1;whiteSpace=wrap;fontSize=10;fontStyle=1;spacing=3;shape=mxgraph.aws4.productIcon;prIcon=mxgraph.aws4.api_gateway;" vertex="1" parent="1">
          <mxGeometry x="-519.5" y="-700" width="53" height="90" as="geometry" />
        </mxCell>
        <mxCell id="vWSoqRxwltatWeiuWFKI-23" value="Amazon Cognito" style="outlineConnect=0;fontColor=#232F3E;gradientColor=none;strokeColor=#ffffff;fillColor=#232F3E;dashed=0;verticalLabelPosition=middle;verticalAlign=bottom;align=center;html=1;whiteSpace=wrap;fontSize=10;fontStyle=1;spacing=3;shape=mxgraph.aws4.productIcon;prIcon=mxgraph.aws4.cognito;" vertex="1" parent="1">
          <mxGeometry x="-520" y="-840" width="53.5" height="90" as="geometry" />
        </mxCell>
        <mxCell id="vWSoqRxwltatWeiuWFKI-25" value="" style="outlineConnect=0;fontColor=#232F3E;gradientColor=none;fillColor=#232F3E;strokeColor=none;dashed=0;verticalLabelPosition=bottom;verticalAlign=top;align=center;html=1;fontSize=12;fontStyle=0;aspect=fixed;pointerEvents=1;shape=mxgraph.aws4.client;" vertex="1" parent="1">
          <mxGeometry x="-730" y="-840" width="78" height="76" as="geometry" />
        </mxCell>
        <mxCell id="vWSoqRxwltatWeiuWFKI-26" value="" style="shape=image;verticalLabelPosition=bottom;labelBackgroundColor=#ffffff;verticalAlign=top;aspect=fixed;imageAspect=0;image=data:image/png,iVBORw0KGgoAAAANSUhEUgAAAJ4AAAB8CAYAAACYCQnyAAAAAXNSR0IArs4c6QAAAARnQU1BAACxjwv8YQUAAAAJcEhZcwAAFiUAABYlAUlSJPAAAHB7SURBVHhe7b1nfFzl2fXr85z3TQjgXiTbktV777335iL3XjA2BmNM7y30EEJICCGB0AIEDIQWEnpPiE3vELoxuMjqLh+vs9Z173vvPaORLRLy5H3OOR/Wb49Go5nRzH+vq9xlj4qcUiRWM6YUy4ywQEWFlUj01FJVzNQyiZlWJrHTyiV2ulFcRIXER1RKfKRRQmSVJM6olsQoo6SoGkmKrpHkmFpJiamTlFij1Nh6SY2j6iQt3qpe0hPqJSOhQTISGyUziWoySm6S7JQWyUltlZy0NslNb5O89HbJy+iQ/MwOKYAKM2dKYZZRUfZMKc6dKSVU3iwphcryZ0t5wRypKISKOqWyaK5UFs+VKqi6ZJ5Ul86XGqpsgdSWL5T6ikVSX7lYGiqXSGPVUmmsXqZqrlkuLbUrpaVupbRCbfWrpL1xtXQ0rpGOpmOko/kYmdliNAua3bZW5rQfK51Ux7EyF5o3c53Mn7VeFsw+ThZ2bpBFc40WzzteFs8/QRYvOEGWQEsXbpRli06U5YuhJZtkxdKTZKVqs6xctllWLz9F1qyAVp4qx6w8TdauglafLseuOUPWUcecKevXniXHHXuWbFh3lhy//iw54bizZOOGs2Xj8dQ5cuIJ58qJG8+TTdBJG8+XzSdeoDp504VyykkXySmbL5JTN18sp538YzntlEvkdOiMUy+VM0+7zNGlctbp0BmXqM4+k7pUzjnrMjnvnMvl/HOukPPPvVIuOM/owvOvklGRk/3gDYXPD56BD/LBR/D88BG8hBmEDwoCbyh8EMFz4QN4h4CP4GUTvBHAp+DlWPgMeKUAb1j4CF6JBW8+wFsgdVB9BQCsXAT4FgM+AFi9VJoseLWrAN4qgLda2hsogNcI8Cx8EMGb1brWgW8twFs7FLw5x8miTojwzQN88wGfA94SgLd00TDwAbxVy08eIXxnAr4zAZ7R9wWf6rRL5MzTqR+rLHznnHWpnHv25QHwGQAteAHwATgffApeuAeegW8oeBY+C56BzwdeNMCDhoAXWwv4an3w1fnAa5BMH3xZKc0Az4EvrdUHXrsLXgHBC4BvloJXkjsb8HnglRO8QoJn4KsqJnh0vXmADyqbB/jmS10F4KtcKA1VgA9qrFosTep6qwDealVr3WoHPh94EMFT1/OB58LngrdewVtI8CiAtwjgUQY+gKeuB1nwlpzkwGfAGw6+Y1ef4YPvDAVvw7ph4DthGPgA3uHhw/E0QnexA96P5WyFz7iehe88he8Kdb1R0ycVyPSJEI4WNoJI4CgLX1S4AyDkD7lx0wGdTy58rvMFhVyFzwEQRwue3/mGBS8Z4KnrIeQSPHU9Bzyf66nzZXV4rufAZ8ErKwB8Cp51vU4DnQpht3Su1AK8uor5gA7OVzEP0C2Q5tolCiGdr7lmBbTSqHaFOqABb42GXjpeRzND72rH9RhyjwF4xwzreiq43kLARy3SsGsADIbPAqiu5zofZOGzruc437FrTofrnQHwHK0/Iwg+BzxHCh/Ao6zznUz4oKHwGfDOOM0DLzjknns2wq4CaOAbNXV8nkwZm61SNwNQEZMKFTDC5nfCKIUQciD0APSJLmhBtCHYF4Y9EKsBYY0C50FXb8KtH7ygPE9dbwTwGfA8+IzrebmeHz6Cx/BKl6su5e25Ch1ha6xeiDA8C7fnA5zVcEFACSdsroHrATjmfCYHXALI1gC+VRqaZzrQtdYtB4Cr4XxrAJ/R7LY1CmAgfOtlPjUH6jRaAAdcOBdywq8/9Nrw6w+7Juc72XM+wucAuHb1aXA9wHfs6XA+IwIYDJ+Vhc+630knGgdU9/M7nwJ4MeCDAJ6FLzjsWgAthKOmTcxXtwsblyO8TbejyxEoOh0hDA7B/vCr8DkAWhd0Cw8/gAH5nwMfwfsOodaCl0XwnELDgIeQO6zrBcIXAJ6T65UXIgznd8DtOgEYQZutqinvBERzpbFmAfK6BdJQzfA7B/cBvNplKC6WS2s93W655oItdcukrQE/49jeaI5NNQRyFUAkfHC/1tUueFpoADwLnwueA98CygFPQy+KDhc+xwFHnvMRvNPgelAQeEPCLuHzhd1NBM8JvaHD7sVyOsA7/dSLACCk8Fn3Cyw4LICjGGYJE6ELg+tNnZDnAkXQCKXNAf3guaHXwhcCPBc+P3g++JKiq5Hr2VDrhFuCZ10P4A2Fj+A58FnXCyoy/K7nhdxZTsglZDbXo+sRwllSmN2K40x1u4qiDikr7MDvOqSqdCaAmwvYOqWiuF1/rq0AoNWEcZGqsQbhFz/THZtrF0lrw1IAhnDbtAJgErwVcL2VEABsWaWu54LXAfComYAtAD7AaMGDbO5n8z7rfN+l4Dh2DeE7dcTwhcz5QsIHnXIRwLtQ5cFnw67f+VB0AL5R0wAaYWJFy3DL0EuQCBeBs47nBy8AviDwQrqeA57f9SiGW4Kn8CmATtgdAl+jKhg+BW9IoRHseiwyAB2VM9uAh1zPwAf3A3QErjinTQqymgFgswJXWtAmJfktUl7UjqoXKvFUXdaBUDxbgawuA6zlswAVQy/hmy8t9YtQKAAawDOrlcAx3FIGQON6zPfYXlnnwLde4ZsH+ObNxs8Ezw9fCPCoEVe7q06F650qxwK8fwU+f87nwXcR4INOuVBlAAx0vmD3G2Vh07A6GZAx1NLp4IQudHS84VxPwfOFXAfCkPAFV70EL6bGKNYJu44DBsDHsKuh95+Bz1a4Fj5b4bK9YqArL4SLlc/DbYTrrEZ1rxX4Qk9Yd46sQ4g6ZsVmWb/mVDlxA38+WTbgS9uML+J0fOCbUA1uRKLOn0/eeIE+Zu3KzQBsCQBciONSaW8y6mgy8FnXc/t7Ct96o1m4PRtOCBFACx+LDr/ruRWvk+tp0QFpwREEHwuO1StOBnynwPWgYygAuBYAhoDveMCnANqwGwBgoPOZguNCOfVk6gLV4QH8sQGPIlAMnYRq2oR8Dbk2zFogQ8Fnw63VsPC54Hkhl72+ZECXHINCw4HPaCh81v1Chd1/Dr6ZgA/KR0gFfNWlcxS8opxmaYJznX/m1XL37X+SB7c8Iw/c+6Q8dN/T8thDL+DnJ+WPWx6XR/74pDzx2Avy50eelQfve1zuveth3Pe0PPLA03L77+5HPnasNNfNk46WpdLWuBhagrzPwrfSyfdY6R4L+NZJJ0UAke/NnWXAU/iCXc/N9xz3c/I9A6AJvSus+xG+ZbbdshngnQzXc+QAqPDhRLLwqRS+M43zWQXkfV7Ot3kTAbwA8EGbzwd4lAXwAlS9Fj4DoIVwVPi4XAWPDkdgCNXksVkKn7ZZHOdz4aMD+uHz5XoB8AWFXbqerW7dsDujUvO8pGgAiGMggB58Vrbg+NeczxQapthASM2DAF9JHkMr8rzCNoTO2XL15b+RN7d9KgcHDsrBfdDgQTnQb46DvQelr3u/uX//QRnoOSjbv9gl/d0HZT8es+PLvXL26ZcAJELGnG8htAiFB+Fb5uR8zPfYYF4rs1uPBYDrDIDI+zpnrjXwQfMAH3O+gEJDZXp9WmzYnE9DLxQQek21uwrgrYETH7PKyMB3sjqgDb2Ez+9+dD3VBl/VS/ggN/QqgOcDPuik8wCflQGQ8HnuZ0QI3T4eASRYBG7i0Rl6m7/j/YHwmfDrBy80fFAAeEPhU/CimOtBwfApgA58zPugQ4XdwFENwueANyTnM5VucQ4E8Eoc8FhMVBYbFWTXy6qlJ8odv/ujgkTYBgBV1879Ctl+C+MBR7i9j49zQOzbe0AdcdPxZ0lZURMcdK6G3dZ6OB8Kj/ZGAIlKl+2XmQBvVgvAa11n3M8Br3OWkcKn+V4gfFbG/Qif536BzWbrfich3J4E+IyGgy/A/ZzQeyj4rDafCG06V+UBeP4QAA2EAM+2UKaOB2AEDcdJozMVLAJn3VDB8zmfP9wOD99Q17MhV8GDEgFfYpQD4CGczw29Nuz64bP9PbiehY9tlrz0DiMffG6LxYKn8LXD7YzjFec2SV5mjRYQJ+Ns/uDt7dK164AMAjjraH7o9g0MymDfoN4e7NsvfT2D0tM1KJ9+/LXceP3tMrudud48hF0WHYRvCeBbDvhQdDSthvNxdMPAN4vOx9GNDhQeM1H1qvOtVdcbAp8PwJHBtwmutwnwbTokfOuC4fO7Xwj4TOg9F0UHdQ7Aowx8VkND8IUmx1N3c+Bibqc5H3M9QMmwy98RykDwIDxmxPD5wAvI9xzwjIaHjxrSZLY5H8HTkGtaLGZIjf29DhXhC9VcNq7XDrVBLXC6RjymTgpz6iUno1Jmti6RO255QD754FsTZgHcAbjdAYbdffvgboMy0NcL2Lpl/+Agjn2Argfql319B+WFZ7bKuWdeJrPalmi+11y3APDR9ZZJe8MK6Wik63FobS3kgTfbBQ+i62mh4cv3Oo9z4LMjHCHg05zPKToc+FYuOxR8pvD45+A7B/Cdo+AFwhfofhY+ut+osT9KUdhmhBmQCFc4qlyGU4bdKWNzhoAXDJ8fvGD4hgNP4YusUPA8+Ax4zPssfCMCT8NtIHwMtwY+hlwIwLkhl/09x/WM86GoyG3FfU2ArkmqShFyS9uloXo2vtw18tcX3jAuB/UijPZ09UlvT48M9PfK/n2Dsm9wQPZ27YH7Dbiht7d7AHnfTnnmyZcAxWppqpsN8BhyFyDfc+CzrqeTCo6F8wE+VLoWPAvfcOAdLuxa1zPwneiAd6IqFHxa8frCrj/nOzR8BrxNG88OAV9w2DXwjRp7ZLKET8iWqRNzFcCpgG0aQJtGAHE7DDkef1b4HCmAQRAOKToIowOkBVBDrk/M+xIInwJYofDZkOvBB/AceeO6TtgdDkCE3Zz0VgUtIwm/S2X4bJfcjDbAhSIDVW12WovkOwDmZ/F+KAfOl4cCowiht6BZivLqpTCvRq6/7nfy/jufm0ICTjbQfwCw7Qd0KDAOHJADB/bLIKAbBID74YK8b9/gPunr7ZePPviHXHD+JTJ/7lKprwHMtbOkuWE+qt3lClhD1WJprGHBsRbwwflQ6c5qX4PfrYbWaNgNdD6GXEcK4dDwa4sOW+3ainfF0o2AD3LgW3UI52O7xeZ8fvcLCZ9OMjgLzudpk8qAaCG0LngKYBw19qgkCZuQJVPGZ8nkcVkShhzPQFeA2wAP7qcgIuxaWQe0GuqEgC8oB3Tdz3FA64J0PeN8xv2GwOeEXC/sGgc8HHzZqc0ArUUyUxokK61JcjNbcWSDGJVt7mzcxu/wmKrSRbJo7mapq1yCHG+mFOS0Aro2KcpvkvycGsnMKMGXcKJsufdhAIecjmEWANLZeFQ58O3bR/DgegcRhqED0K5dO+XBBx/EF7NRamuapLlppjQ1zJY2VLtzAFZT3VIUH8uljbNaAF4HwJvZvhrwrZJZLnxrhsBH97MOaGXhY+gNzvkI3/IlPvig4ZzPup+G3RChdwh8PB5/Jv7HMxydCReEHPgMgH43PNeAN2VCJqCjAN4ECx6hCw1eMHyHcj8/eP7QOwQ8hc8Lu26x4QPPg+/w4GUkISQn1iBva1dlpzcrhPlZDKuz1O2SYqtk3qyNqF4fl2NWnCVVZfMkO6MO4LVKaRGcr7hFKspapLy0Uc4951LZ+U0PnM2DbnAARccA3A7utg8534EDBjir/fv7pa+vW3bu/FauvPJKaWpslTmzF0lD3Uy432xpb1mG4mE9IFuH8LtG2i14basBH8DzwzcceM64rh+8UGFXXW8x4AN4wc73rxccDnjHAzoK8Hng+eHzwrABb7wPPDjeVEAVZsEb54Rfq5DgeeF32LDr5H6B4JWhyCB8BsBQIddfaASAp/ANAx4qXYKXnlSL0AkXA3iZqY2Sk9GMkNuqys5oQkidIxec/Uv59KN+ufeup2XNitMkLalcigtapKSwRUoBXlVFu+RkVeCLWyd/vP9x+XZHjwtef/9+GQB4+/bR8Q4ANMB2YFCdzjge8j844MBgvzz88MNy0qZTpLa6WZobke81zgN8c6UDkBG2Ns5eVvBwbFul4Bn4fOD54PPnfQZAJ/QOA96ShScAvBPgetDSE75n+HDccAZ0usrCR+dT9wsBIMBL9MBDBTtlfI4L3hRAZ8Fj/ueHz+Z7Q8Kuz/UseAqfC54XcjmNKs4Fz4FvSK7nh88ZYnNCrr/F4oFnlIUwSsCy0gFcZovkZbVKRkodbjPsNktqYqVsOPY8efiBl7UC/fiDLrni0hulkO2ULFS2eY2ArxnO1ywFuXXSWD9XTtp4rvz1xTdlz27ABfAYdvex0sXtgwd5m843oLARuoPQAYA4iPs+/PBDufXW3+N52qW1uROhdoE0ssXSsFRaUWS0NRE8hNsWgrgSrkcZ13PzPT98Kgc+xwX98PmH1xS+Bcfj5CF8xxv4oBHB54RdHeVw8r5g+I4/DsfjAN1xpwE8ivA5ACqEhM8AaMMvigsPvEljMwFbIHhTUFxwLNcUHkZ+5xvqfsO73pBWiwOewqcAOuANqXIpDz7rfAqeVrqEL3BUIx/FRHnRXEmIKQdw9Zq/JcdXSGZaLcDCY9Jr5NabH5KvPu9zG8IPbHka7nGMZGVUSm5WDZyPeV6dVKDKZegtRsFxwy/vkvfe+UILDa1gHR2ACB4LjEE4HMGjmPP19fXq71577S1ZvWq9dLQvkJameQBsKeBbqHlem/b0AF/LKgXPhc91vSD4nCZzwPCaA5/O4yN4PudbDPCWLCR8xyt8FsBQ8FkACZ9qtYHQup+F7zgHvg3rAOL60wDfqZCFLwjAIAdU8CYDPEJnwTP5HaFjTy9X2ytsMFsAOaNlKHxGNt+zIxyHgs8P3uHhA3C+sGtHNjzwjOsRPB5ZwZbkz5bkuCpJia+C8zUgvDZIfEwhXK8WZ+rZ8srL70nP3oPStRvQAL533/pcfvWL25HXtcLx6pDjscJtk9LCdsnLhoum18mqZafIgw88KwfYXnFC7n7cZr63H7e10DiIahehdnBfn/T19wA6Ot8B2f7VN7Jly4OydPExUlXeCqiWA7DlyO1WQKsA3yocVyL3W4H7qcPAB/Bc93PgM+D5Qq4D36L5KDgWbAB80KINAHCDAdC6H+FTAEMXHcHw+cd4j1uH47pTAd8pEI8E0EJow2+gA44ac2SC63bU5HHZCt6UIPA4ohEIH4ALgk8BdFzPDbk27Ablega8UolDnhcXYUXwyhU8r7d3iLDrcz3met5YLsIuQ24K8j3kdqkJeDzcLi+rSZITSqSlcYE89MdnZPuXXRou+3qRr0G7vu2Vv770hn6I1cjt6HqVZbOkKK8NIRgOWjxXaioWypWX/UY++ehbGUSV64HnhdyDBw9AyP1QXAwM9AI6U4B07emWT/7xlVx4/uUIt/Pw3O3SxBksCtoagLcCIohQC6E8NHxWfgBtwTF0eA3hd/5xgO84wGfkwQf3c/I+C6Drfit97ueDL2B6lc5yOQWf28kQjwbA4xVAOqHngAbCMwDejwheBqDLkIl+8ADdZEDnB8/KH3pDhV0LXkC+5wPPn++xwKACwHNcz99YDhV2FTy3wjVFhg25qfG1khhDp2uWjORaSYorA4RVCJvtOnfsm697tCfnFgp9rFAPyo6vu+Sm39wlc2Ytl/SUUrheh7ZYSgvnSFPNKhQorXLMytNRaDyFQgMh1AHOtlkYcgkawWN+Z9orLEIGUIyYobUt9z6EL26T5GZXSU3lLGltWgq4Vit0rU3LkP8tA3xQKPgUPAc+K3VABz6G3GD4dISDEK4HfOsB3/rQ8Dmhdwh8/tAbAr51yP/Wrz0Z8G2GCJ8BcIMC6EAYFIIVvEkAb+IQ8HIVvMljEXqDwAuGzw/gcPkewRsCXwjwguHzgxcQdoeAZytcA15aQp0kxeJxcdVaYORmNsq0sDR8IKfLE395SR2OodE4lAMg1NM9KG++/qFWXplp5VANwGO+OE+qSpZIdnq71Fcv0inf27a+j0IDFSyfB39L8TkJmYXPE1zQecyHH3wmv7zuZikracKJ0KbVrYFtOY7UMPA54PnhcwF0nM8tOIY4nwFv4fx1gG/d9wefAngy4IPWblYRPivjfh58CiA0IvA4enE48Cx8Q8Ez8Nk1u8OC58JXFgheSNc7DHhQOuBLT2pAflcjaUk1cLtqSYovlGuvuUm+/mqPhkd1JzqTA8b+/fvhfPtkz65+uN7dcI81+LsahNqZyBfnSn4W5+wtlKLcDoCxRB59+Dn56osu2c/q1ud4+/cz1Jpwa6Wv44C3Z3efPP7n5/XMnz1zOcDrlNqqTgMYQGuDAw4Fb0XIkOsHj7L5XjB4C+YCunnrjELBtzgo53OLjpHAh+MxhO4kH3zW/TzwrAifG2pd8MZmo6JFmAVskwDddwfPgS9EyA0Y24WiAV8s8jxX0w2IAfANARA533Dw+cZy0xh26XyJdRIXVYzcrlQ/9L889mKAQ9nqk8WA9twG9ilA27a+K1ddfgPcrgnQzZLivE5UynPgfIuRK7ZJcX6LnHPWlfK3l97WXI+jGoTZPq9xUg+8ffsHtbLl79iC+fCDz+X2W7fgiz1e6mvnSE3VLIW5rWkJctAl0tq41DkuceGzPT2FEAASuOCwa2e0+Ktc02BG0TGX4B2rIniLAJ6Fz3U9C58FbxjnW7PKAEj41hLCNScBPk+EcL3jfjbv88Lvqba4YI6X6YEHqAgcwZuEnzkn73DghSw0QsLn6+1B0VPpfJ5ipgFGAOg5YGC1GzC6AQBDVboU70vE7zOSGyQiPEdSk8rkD3f+ST7/dJcBzy0CCB7zMPbf+kyY5O+hv770jjTXL5bSAgNeBaAryOrE7dnI+ToAc5Hc+Ku7tTJm6A7M8wLBGxjoQ47X77peb89+wPelukFj/RxpbpgnDbVztbfHgoOvW18zH/ctUAckfHQ0Ollzw2KFj5XtocKuLThMxbsW8B0rCw4Bnh8+N+QGhV3VCgOhAqgQboIDbgJ8no6lFEDP/QyEBkQFLyDUhgBPHS8IvuEczw+gDbsWvpDghRM+D8BQ4Fn4QoGnzmfdLwR4DLV1lQvljFOukA/f+0a6kJP19RIGCwabvf2ADoUCpLkZXQkQvf/udvnZ1bdqg5fjvMW586QwZy7AA4j5qHoz64TTwB975EV1PRWLDfz9wAAdjs9txnCNBhVs5oF0vd27+uSO27bgizxeJyO0NS+Eyy2UBgDH/h4BY7glXOY24Otgk9mreumCQwoOJ+z63c8Fby7hW3t4+NT1hoHPAc9zPwPeMatPVAWDp/A57mcdMBC8MWypcNhsGPB8ACp4h4EvIN/zh1u3rwe54Bn4FDwn7Nqcz8Jnwu7Q8VyFzwXPEUJvclyNRE8vQrg5Xu68/THp2mVml/T0DCKXMzNJ9h+Ayw12S//AXgXPwGgA2vlNn7y69R86wsECIzOlWYpy5gC62cj72nFsRRW6RC4476ey/ctuFCYIt3Q9gocKls1kjt8ODvbhteiog3ht9vUM3AT13bc/kcsuuUbHg1ub5ktz4wJprDVOR9cjXISIPzfVLZIO5HkKH+5nHmhyvqBWix8+63qzjgF4awGeoxHAR9cbDj4LnoEPWgXoVm0EeJQDHyp3L/Q68DkABhQXE8Yw5JrxWoI3keCNMeBxwbeV3/2GhS+E6xE8f1PZgqfwKYAGPPb3QsFn8z0LnhYbDnwm3DohF+Cxqk1PqpfwSVmycO5Geej+F7RRzC+7r3efdHV16wjD4L5e6endLX39XS54BIeOx1YJRzR+8bPfI9ytkITocjgeCo0Cgteh4TYrvRpf8Gp55qlt8s3XcEw83vT19uO52U5hI7kfgBvX27u3S3t6BM+G3QfufwwJ/yqE3NkIs/OkpWGRuh5hY6uFMDHs1lfP07DLcEvQ6Ia24AguOuwsZut8nQCPozLzO40OBV+oBnOoatdqNRxwzUoI4FEefEae+zm5H0LvqNE/igds6QHgsaKl200EdBPHAETcDgTPg8/fVA6EDwoALwR8YUUueMHwBRcbGm4DCo7QrkfweCR4mSmNgKVMqsrmytmn/0Q+/6RL8zGGWlPV4sgm72CPOh9DLgf4WQTo751c78Xn3pKzTvuJJMeXS15mC5yuA/DNlPzsFslMq5aaijlyzplXwh0/kL6eg9K9F5ANHtDn0eGzA2bclhMI+vvpfoCb4dbJCd9+60O5/pc3S0tTJ8CbCzdbDrdbhEp3rgJHwBh6eZtHhlY6n4ZbgjcC+ObMXINwuwbwGR0KvgD3c6vd0HmfCpXv6hXQSiMXQIXQAujkfg6Ao0YfYcCbMIYyeZ4Bj9AZ8DgLWeHzARgy7Pql8A2f6xnX4+ZAhM+K4HH7DMf1FDwv3yN4LDKCh9Vc11P4DHgpcdWSmlCjU6M4PkvnuPP2R+SjD742TsZQB+chGHQjgmHE6UzG9QgFHfLrL3u0MOloWwHYOIkAlS7Ay8tqkfycZm0yczTk9lvvk48/2q7hnH/L5+EEAYUZgJuQa4bPGG77elFF9x+QXTv3yssvbZMNx52M11iCkAqnQzVL0OqqUHQ4wNEBeZvVrla8+J8YcgmfH0A/fJ5Ww/VWAz4jBdDnfn74XPcDeNb9hjigBRAyDngCcr8TACC0kvIB6DighZAhWMGb6IA3fjScD3neZIBF8CYQvNEGPK7DCHY+F0An7FpZ8ILhG1rhGtczzucDzx9yHfjofAFTqDTk+uALcL1qSYrBfTEVAA9FRmyJZKRU4gM6UZ58/G8KhSkACJ4ZWSAcpq3CHI/TnIwj9QMi5m1vvPaxXPrjn0t1xSzJRlHBUMu8r6SgQ3M9jnKcfNIF8sRfXlSoWUAQPIZawkxX7e/vcZ+fbtjb2yd9fZw6f1C+2bFbbrzhNnyxx0llaYcWE3Q9wldVNht5n8nxGmsX6m1bfLDQUPhUoeCzAK6G6xG+VSo/gPPnevDZHh/h07DrU6AD+kMwtOx4bQ2tolAsKYTBDqgAbpS1AHDU0UfEAby0QPAA2ESCB+gmjIYD4nawhrhfEHwWwOB8LwC+KYVDwAsJnwJ4aNfz8j1nnW4MFFepPbyUhHJJT66QqVNS5Ne/ulO/aIZSM6hPEQQUG+p8BozBQYZFTu407rgLFegrf30TH/QGKczllKsWKSvsVABzMusBXpk01M2Ra6/5jYLNRjSfwzaSBwZ7pX+A4BFEOiqrXbqreQ/MO995+x/CzW+K8pqkprJTXa8J8FWUzHSdrq1pmQLJ+/kzK91Dwcew7FW9q2T2TBQn0BD46H4MvUEA2tAbEH79DqgQbgB8xwM+HCEF0IHPABjkgJAL3vjRlA88hFgLHlsshwXPF3oDwTtUyAV4Cl9hQMgNCR6k4Lmu57VXAkOuAY+hlhNBUxOrAB1yvqRyCZ+cLCccd4Y88/Tf1MX88LHHZqYzGfDY9uhD5ashGaG5t2effL19l4LVOYsjGg1Skj9Hw202wNOp8rk1SJxPkuef+5vs+HpnAHjsEXK2ioZyHcOlTEgfRD7Yi0p7z+5++d1N98ji+RukqhwuB1drgqqRQzbULDCgATKGWB3ZwG2r4eGDFD4eVwK+FYeBL7T7+eELCMEAjy64fCl1HACECJ8CaCH04LMAKngTfOBNGAY8nSQaDJ4PvgAIfeC5IdcHnlflWtezCgWegY8yud7Q8dzAQsNxvFjAhvwuPakG0AHEBMAblaOzTi48/0rZsX0PXAYh1YIHyMwYq5lNTGjYiyOYA3A+zjSmi7384jaE1Iv0uXUBEZwvP7sZ4XEmnK8SleksOe+cH8v7732kjmbBo5uykGEeqfkeKl329Ti8Njhonpsnwit/fVuuuvxG5HYoLFDFMq/T0MpQ67hcC3t6BA1w6bCanc2icuAjeM5MZgOfAW8WwQsBn8n5hnc+v/u54deF7zhNEQieB58DYEDo9QAEeLEAL1XBG3c0Qq6CZiraCUdTWTIZt4PBcwEMAm84+EKBFzG5AOBBYfkQt0uD89H1AJ47Z0+nyperYu3ySA21jvPNKJOEKKoUOV2ZpMZXopqt1dwubkaJJCHcJsWWO7NTqiViaobUVM2U557ZJt9+06tVq4ZGhcu4kAmBzM8MFGz2EgqGaBYO1//i9zp5ID2pGo6H4qKIyyFn6UTRzIxyOF+VvARA+XjTqCbceG7Ax1EStm0GEHZ7+3oUcOu6LHpYdT//7KuAY7nU1cxGjjcH7rYY7rdAQWSxUVc9H65H8DijhXP5rPzgcViNWq4icH558DmuR/DcdosFzz+2681sMVOrnLl9kAm7hG99EHxDw64FcNTRP4yR8WOS4XSELkPBmziGxUUebufJ+KOytZc3GQ5IhYTPup/PBf3hdwh8NuROzpeIKXlQrkSE5SmAM8LhfJrrcUfSckBYAQArVbHTqwAYRyXqJJrhN7JUEqPLcAS8UzMRVkv1Q/75T2+VU0+6XKZMyNDHpCbUSkZyvc5GjpqejxyqVc4962p549VP9MummGMRPOt4bHv09vQCngNua4U9OurVrR/JFZfeIJnpVXjNMhQZcLyyOXrMSKnG/dVy+SW/1NkrDNUEjznkIPK8g9qy6VP4WGywqUzo+Px8Hwzrn3z8lfzm17fhC1yHk6Rdaqs6oFkKX0vDEhQbnXBA5nerpbVhhY6stDaauXyc3cJFRJzdzAq5ow0FSPsiaAk+GzacCaKFj6F3lVN02KrXtl0Ycu34LmXBM3P63EmlOrEU0DngDQufE3KtRh31wyi4XZIBbwzBY3gleAWoaAsMeKMJH5zQgY/uZzUshEHu569wDYDQ5DyZPiVHpodlQzkGPoAXGV4C+MqgCsBXBdVA1YAPLhZRA9hq4XSVEk+ni4arxRdL+JREyc+pkuuu/a1s/fs7ctcdf5Kq0nn4PQoMOGRKXB1uo8JF0cHGcmnhLNlyzzOy6xsk/nAxVq90N66VJXR9cKP+fjO8ZfNBdUfc3r1zvzz71FZpapir0+Sz0mu0p8dFRVw4zrUes9qPkZtuvE92fYuQ3U/wuPYCTje4V/Yf7AZ8ZoiOExO4WMgWPARwz54uQPuanLz5dKmvbQN8nDrFnG8exObyYrjfEhyXSUv9KsBIAC18nFLFsV2E49aFAG8BoJun0+1nKnwWPIZdA56FzwC4RjV3tgeegY+zWwifgc6K0+nV9Qje4nUAjyJ8BkCCFwCf44AjAA+3HfCs/PAFg+fCFwweXM8PnmpSbmjwwoohA94MBa/aUaWBEeE3JZ7z7eCCMwqRv8EhI9JlZsdi+eD9L2Tnt72y9W8fyKUX/RrhtVGmTc6F85Uh70O+x9kqCM9MMc4/+1rZ9vd/KHh0G37xhK+rq0vh0zDJEAgo+HuCp0NieNxnn3yrWzHQiTgBIS2pUivciuIFOrKRklAhGzdcgJztXenaw3FbhG24HkdJ9u3vVuczExOYWxJOk2+aYmYQVfQu+clPrpHOOYsQctsB3ByEWE6fmguoVil41WUcVlvpwEfn45SqQPDaCV4bwFMAh4IXDN9w4B0aPla76wHfOpUHH8GzInxW/zR4HnxThoXP5H8eeCHgCwFeBHK9QPAIG+CbWgXnqkVYLpVxR2WokyXH4/6IXDnqiGlIvDvlhutvl71d+zRc7dl1APD9Q2oq5suMafl4fLnMmFqgx8SYSrxOLnKzmfKTK34rg3S8XhPm6HB9fSbxt/mZgudzJAK4t2tQXnxhm3bsE+MKNM+rKOmU0oJOnTbF1WwE4cLzrkGF261g8XlZ0dLpOFJiRzO0usVz8jV4ZN63e/ceeeH5l+XSS66S8rIGKS9t1tnKDLd1VWwks9HMEY4VAA/wce/lBlS8jQCvaYnmhe0tiwDfAsDngKehl7mhA58DoAUv2PnmzTETC6yC4VMA3en0bDgfqwqGzx92LYAjCrUTCR5yP5ULH8Bz4RsKHhWQ7/kLDQufA960KVkOgAa8CAe8yLAKFBwGPAIYgxwvamo5/g5whhdITAQqYIA3fmy09r/eeO1D/fI42kCQvtk+KBece60CFj4xUx9Pl6TrcaljDHJD7i338ovvyK6dcB+AZyAzIwssLggi3cqFzsnHGD6/2dEl117zWyT6ixBqG5HjtUpx/ixdm1FR3KmjG3M6VsuLz78uX2/fLb29pr3C6paV7f4DBkT29ExLhyMZprrmbbZk7r/vYZk/b7lUlDVLeUkrQu5cQMdpU8sA2UoFz2g5wEPobVyK92PAawN4bS0Ar3WeAqj5XivzP8jCF8L5qE7AR9cjfH4AFb65Bj4PQFS8C6m1AI8ifMEA+iCEA44MPFS2E4PACwDQCbuhIHTh84Fn4IMA3rTJBrxpBE8LDQteqXG9MDiVOh+PqG65x14UHQvPMzlToiNzdRniXXc8iALBuBHzNc3b8PPzz7wu3P938oQUOF2pNpXTkurUlSKn5urIw6UX/1I+fH+H/r0dx7XVLd2HQ2u8j9Dp7xwNANTnnvm7nH3m5Qi3JZKBqpmzk2srF6MAmK+tFk4kuObqm+TVbe9LX88BgMWxYLoexaY15wOahjJ7iX19nBPIMMz3gEJm21ty0QVXSHNjp5QVNyPczoHrLXTczQDXrM7HxvJS3M/htMV6MnCaVVvzfMBnwGtvJXgcZiN8PucLAR9dj+BZ+QFc4Ewq9RzwWFm04FiAd4yjUACawsNC+J3AswoGMBg+P4R+8ILh40ZBBrxsiO7HYgPgTSmCSpxwSxE6OCCnzLOfhxyNSxbDJqajSs2SKy/7lbz52sfukkMFg2ELR7rf9dfdjkqzEkUI/jaqCH9fir9H9QnXy0ytAxzt8tTjW+XbHX3axGWFqy4H+Hp7WX32KYB0JQPGAFyPoRO52M4euX/LXyQ+JlfSkyt1GK2sqBMFRxNcsF2qyzm5c4Hct+Vx48I7duHvOEKC96r9PT6vGc2gmAeaYTyG3APy5RffyBOPv6AJeUOtKTA4qtFQs0hh071XeFkDPS7Bfezzsd+3EPAtkFaAxxVtbS3zTehtseAFOp+VH0A333NyviEAOvBxjt/CecfA+dYAQBwhD0APPisWISMCj728iUcDOsqC54PPDbsh3E9zPcAXOKPFB94kgDcZ4KEAmKZVbgFkwDPwwfnCKVS6U3FfWKG6Y3REAQqLfCTZc+WFZ193Q2X3XpPj2bBICF94bptuix8VQWfNVPAYcjmJIDG2Qnt8Z5/xE30ewtHTTaejC7GPh9A3SPAYHs1ibfdnOCIh3frKW8I9RKrLZzswN+jqNjOFaqakp1TJRedfK69v+wjPbSpYQky46HacPNDXz0rXQMjxXQ31eO9cfPTpJ1/Lz1Gtc7iOSyLLizuQ581Xh2NbhSJ0qvrF0uyA10Lwmgx4BJAbBbW3cPSDxYcPwCD4LIBuvufkfLbocOGb4+R/bDgDvIXzVsvC+VRoAK2WQiMD76hMwJdxSPgCIPSB54ZcH3gefDgCvKlDwCsEdMWqyDDCB4XjZ83/8iUiPFcmj0+WksJWOf/cq2XH9h51OALXvZeh0YQpm5tt/3IXXOlxKchtkNioAgWPrskiIz4aoTu6BEXIXLnxV3+Q7i4Oj7GPR/jMRjzMydiD6+vnZFFAx7bIAEDB79hc/grP/6dHngcYJ6KoaIDz1Uq27tPSoeGWFe7CucfLzb/ZomDzPemJ4bgex3F7e/cAPDOFisNpJsc0j2X4fwmFDC9MUopwyyKjvno+gOOEAU4cMGqqWwxxHJcTCDjExh0LHPhwJHhc12HBOxR8s9oDw64fQD98Kh3tWAP4VqkMgITPyh9+jb4TeFYWPgUwCLzh4AsGTzUB0BE8VSB4xvWKAB3gA3Rss4RPzNIKNTm+TMYcFYVKaaO88vI7OgfOFAWOy+ELY4uitxdAMlfD/R+896VwE8FSVJ+xkcVwT4bccuR8tZrzhU3MkE0bL5KPP9yphQOdrKfHzkim63XL3u6dAI9N3x7tx5nZLAYiuu2lF/8CQCwAbM2Swy3SUrlDVaMzk6VVryu2YzscE/mndWRbbAzu61HwDNSseE2BY/dm6YVTcr0vm8kdbQyrC3QeIMdwVYRQx3YNeE31Czz4HJm8j4XH8PD5AfTnfBZAP3yeONy2GvCtUvnh8wA08Fn96+BZDQNfIHhB8KnjOa7ngDdtMhvLjushrEZS2lQuQH6HShihMmxiCkJOh9zwyztl906EO4CnvTgXPH6ZdCoTGnk/N9p56fk38SGtk4ljU4VLH5Nia6E6hFz29ko0dP3kiht1yjudZj8ck+ARiP0H2OztxhEwHyQkhJK5GB6D1yQcjz36omxYdw7yzjzJSmuU/CzuVAXoIP5MR/rZ1bfI++9+pfmnOh/+3qx0I2xOpYv3bYAkeAjFuh3aQW3f8CqItVUzdT8X9vUanGnyOqYL8OzEAuN6xvk4nd7kfACvCdWuhU/7fUNzPgufP987NHxsvRC8lQHwLQhwvsDQq+CNU/A4Xpsh4wGVgjemAJAVyLgjg3I8yIXNAc7N74Lk7/F5rRUHPoihllUsN4YMm5Ctbkfwpk4yAEZNK5bo6cU4FsKh8DO+0CkTU1GhJsoF5/4UudX7GmLZu+OAP79IOhBzLw5RsU/GMKbtEXxxu77dL5dceL3ukZcQXQXVSFJMPVyvTosNjr3yw3/5xTd07asJhWz89jqOBCABHqGzIw9mYqcB/rNPdsqvfnEnKuYGnbWSh9fRXUeR63FjSM5c5qaLf370Zbxn8355kpjigpUsZ0GbSpdFhgWPlTAf+9UXu+SRh57CF7vaGcftVLg4hst5e5xAwCNhZJ7XTOeDM5qVa3RALiZaBABZ9QJAbbuEyPkcAP1hNxhCBdDJ+3Sobc4quN5KVxZCA99QAEcd+YMZMu7oRECXimM6lAn4OPM4H8DlK3iHqmptSA0lC10wfFYEj45m9mzJ0hyOrhc+0Tgg8zCGxejpBdpzmx6WKeGT4VYppfLMk1sRfkyIIyT9fQiJdB6IVScTdg1dg2ZxDb84OuOfH90qG9dfotuxsTWTFAPn4+VL4XoRYTmofIvkumt/J++98w99Ln753FyxH/kdXU8dzxHDra6nwGMY3ul6dNX1x5yhbRQWGQpc3mwpye9EldumcwOvu+YO+fC9r02Ixvtia2W/QkfYDXh9/QSbrk3HM+BRn336DfLay6Vz9go4Hre/4BR5jmqY3Qh0ujxA5AwWuh5BNLNcnGWTDnxWCmBQ+O3QsV7P/YId0ALIHqXJ/1ABz14J+Fao5nVSFkDAFwCggfA/Ct6UcdkKXTj3X4bLhSHnowgem8msOKdOphumS2piuYwdHaNtkfPP+Ym889bnKAJMQcFQyi+RoJiZJWY2McFjMaDDVQR010F5+/Wv5dqr79EFTbERnD7VBNH1asyWZqmVevY+9ujT5m92d2nOZdZN0EWZh3VL38AeAEJYWAgMovrE6+B9cD8Vtma4j3JSXLlUFM9Ffteh4HH3qsy0er3s0523P6ytHr5vnii9fV0OeHwdW9TQuU2Fq5Di+Xds3y1btjyqC2YqSltQaMyEZhv4AB3n8dUBNM5OZvjlbRYinFKlLqjh14PPdb9g+EKAN3z4ZetlBeBbrvLD54ZeBz4FEPqPgsd5fuORM5qCosCBkO0VhODwfImdUaxJ/8RxSQiz2QixCcgl1sjLL7yJsNnvNord1oTT/jChi/ANaJuit5e9OTgeHPLJP78mmzdepaMfMQAvMZqOV6dNaW2xJJVLSlKhXHD+FbJt61vS3Y3X6edAPoFA6OPYKqexD7C4IIgAA47V3Q1nBRgsTLhonJfoLMpvk+z0Bi00dNd5hN4cFB4cSTnlpIt1cdDeLjNJgC0aPp85YcxrmerWGVLTk4ppRT8KoC/lZz/9NQBYLEUF9dpiYaVbXTFbRddT6Krm4zYdj3P56IAeeBa+Vut6Ttj1AxgQdg8BH+f1zQF4c2YtA3hUIHz+0GvD73/W8XAfZzyzemVBQfCmT8lHIZGPsIcKNywbjpchk8cnwe2idSbIJRf/3LQk8CWbL9rkSvxiFDzkRn7w9u7dgy+rV/tn3XsOwu1+rxtuc6JB/AzOdGlArlerM1i4JzIr5ikTE3TF1/W/uEmrWzNXj+GOYDNvNO2VffvselnOVnYKEjhTFwqZ2299QLgZYlJcibocF4SzxcId5jWXbFshN1z/e/n0HzuMY+O9m/fM8Vs+p+kb2pnKpmgy/zNHZx7/y/O6g3pRQa2OaFRXcOrUHKPKTm0PVUO1Oq7rtFy06DC5XgB8Qa43BDwLnwPeUPi49ne5ghcIX7D7eQD+R8HjLlR0nqlQ+EQTaqOnl8DdiuB6cMMxSRI5NUumh2fIf40aJ8cde5o89cQr+sGrnC/DOJI329eKAO7Zs0ebsMwH339nhyxZsEnG/ihZEqJqJDW+WcU5folcmYYCIzWxQhJi8yR6RrosXLBKRyYYctkb5PR0wmVed1D2du+Bm3ZrnmemzPO9cDRjr26D9rOrb9a5eZlpdZrrsbotRNgtQK5XVT5HuGCG+/GxYW0LGXVVPN/e7t14XrqgCbnm9+a1qc8+3SF33/mArsUtLW7UXadYwTbUzgNwc6SiZJZUls6B27HXtxQwmrYLR1EInwIYouDwA+iGXV/onelOMPXnfJzbt0xmz1yqsgAaCP0AesXHf7i4gLuFlehySu5EStdjFctZJFMn4bXGJkvYpFSJisiUlMRCue2W+3V3JoYz5jwWvO5uJv/Mw/gFcdiJjmSqQh0bBTiffbJLJ3+WoLJkThkTUQHomiQlrhm5XqXmeLocMqlSF+5MC09SN7n9ti342x3qsAztbIOYfAuVNAqAfoivZ0FnaFSHxHt86om/6RYX3Po2O4MXb0G4zW5HsTFTuNljeUm7FjKvv/q+OrdJGVCBw+26HfCMC/K5ze9trsdG+da/v60XpGtu6JTiwkatcjmSwyE1TkytLO1EuKXbLcWRhYapcK2C4bMK6X4++KxcB+zgDOel0BLV7JkUATQQermfB+F/1vEAHkcndFcq/BwRVqQ9Ow6JhQM8htlJ4xMlLblENqw/XWf0EgB+qRqe8CWwHcFGMSduGgAYFns19OmwFx7zzY5uefjB5/BltyCslmo+NwOhNjG6TkNtXCT3WKnVaVZJcaUAr1xmTE9DhZurpf9jjz6HnBKuCoBtiGdvzTR4zWC/AqLjrqapzJPii8++lS33/kVdJiu9HlVuveZ53HslJ7NRZ0xzMfS9f3hU91FRN8XfMnz3IzdlG8eufHPhw/8zwG1v8VjOeHngvj/rGoZyFBrcdJI5Xk0ldy6dh5QCobaSe7EshVBs1HBtrgfe9wcfZzYv0fmQFHPPQAD9IdiA+B8FT7fGGJ+v4E1BlUnwWFyETUCRAfCiIxB+JyUjT5ml62EZvhhi9cPv5xinCW90iX7Chi/LD55dQPPi8ygoTrxQxo9NANh5kpbYKDM4tX4q129wn5UGbadw14GYyHxJjCuU5IQCiYvBe54UJxdd8FN5bauZhMC5eyxoGH7VgfDa5vICBI4yOaZ1p08+/gYpwpm6/zLbQqxw6XzM+7gfc152rVz642tRkHyrJ5R5TvNcXJfBQob/E+Hj/8nf838n/HTgHdv3yuWX/lxamxfoc5UVo9BAbscQy+t21JRzrcZSwLVc8zyGYr+C4fMDGBx+A+ALABD3ATwzxX4R4FvkwhcKQOo/XFzYzR/z1P2mTeawGGCcmAVl6igFx2PPPesq+XYHws9efOH4cugm/ODpdjYvYt+OX5Su5oLr8Hd8THfXfvntr+9GztOhs5UjEcajp5VpJRsXyR2l6iQzuQUwck1GGR5TICkJnOJUpuF96pQkTZ5vvfkB3R2e0ovoASrNtxR8Cx6carBLdu/5Fm6Fn/F7XpTlrjsekXmz1+N5K6W0YI62Vpjn6YIhuCu38n/koafhzHtwwjBfNf28/gFuJhQIHl+Pr80TivDzJHj4wadk86bz8Vk1SWlRG5wPFW45L1sP8CrYYPbAq68x19fwg2fhUwBHAJ8CaOFTAPEz5/q1cao95MDnOaAHn9V/EDxuBMQNvvNRZBA4fMkTOSWKoRY534QMGXtUrKxesRmh7iUNc4SOHzY/dG3Yat7DeWx0BuZacDmFz3zpdIS//+1t4RUGI6bSQU0OyZyOwLGqNYVFjY7bctgsIYabOJYAumIV98DLyqiCY14sH723W3oBvw53EXwc6UAGCrZCuKZit47p9vbtxYkwoLnYe+98KRec+3MNfSwwOJpB5+OOU5lpZh/kzZvOk9defU/27GZTmv8H/n6wG2Hc5HksOFjQ+MGz+vD9L+XGX90JkDqRN3JflzadZ1hdNl/qKhFiq5cBumUAjhByPxajAPCcouNQzqfg2WG2AOfjbe5k5YAXBF9w6FXwjvqhB954gMchM4I3KQA83wxkVRZ+b6RLH4MFyLhEko7mVxicLUCEbgIvX0XwUFCgso2aVqQjCFMmmKGxn179Wx07ZRiyH7SZNcIvm321ftnTtQtflPmSOMuDORfhYF527dW34KzvBMRxeI1MwFYuKbF1Ch8r2zgcIxHiI6bk474SFBlsqyAPjEa4jS9FWGxBeM6SRuRId976uGz/HBDwBNCTgOOptpKmy3JIjUWO2RWquxsg8n0D0i33PCErl54kGSlVyPVqUWSYPVfysuG0qKK5Efedd9wvn37yleaOuquUDvvx5NqnSyG1kY3XMiMlfG1zIvIEe/bpv8ka5HpMSwpyORu6WTcrqqsy4PHIvh7Hd7UIURE+zhe0IdeK8JnxXSuOkBj4OKWezueE3lYKtwGemeVsFQo+D0DfWG2amOWN3iQBjtWaNRcUQLMCXFYubHiMagyF8AlNAVxTxua7ClMVeBpXoNBxOzQOYbGw4BT4caPjdf0rrwr47NNbvdkn2kdjU9iEVOMy/fiZLsHxU04rMgUGZ/u+++Z2aUGIiQTIkWF5EgO3I3hcocZdqcxC8Cqx22Fw24vU+BpJZiMZhUYaL1MQW4G/K5R0VLyzWtfJKy9+Ij1d/LINdHRdHWGAG2luBzB4UjBkugt4oLfe+FSuvupGiYvOltysWt15gE6anVmNY4Xk5eD5URk+/OATrqPZPJEnGi/SYprMfA2+HqfImxnL/X2D8tmn2/Vv+cUW5tUDOk7BZ8il6y3RXK+2cp7T6+PoBofZoJo5CiEBtDIgQvVGhJFXnHRhbDJSGHWq1UJACOksZ08dCqJ1QAOigXHxSGanWPDoesOJv+eVvQ1wk8fkqabgOaaMLXQVpiryifCZSxtwyIwzUDg8NvpHMyQpIV/u3/Jn+fLznS50HLvUxiog23fADNSbgXt7hDMiPLGy/ODdz+X6n/1BLyE6dUIOnM1s8m32XSkXLhznzgPc4Ic7EnAnAt1POa7WbIHh3Obvzd4slZKb3iY3Xne/vPf2l3Aazk7mgmwWEwZACwpHGOhEfN+257h714A89cTLOu2bbZq0lCIAWCUFgCQ3i2txy+F61XD4G+XjD792p06Z52MFzX6eqZrNWg2uzeXcQNM64n5/77/3Dzn7rB9r2GOrhovM6XrVZQvh+gu02iV0dMXaasJnxEXjFEO1qq4T4BFARwofpPBxMoKdZkX4IBQ2XNthZjlDfvgseD7RBf/N4NHpCJ+RcTo/gLgf4OkVIifna/9uwtgkmR6Wjg9vsXz0wXb9As2H73zwcDk6HWeLcF4cXY5hTl0AoYm9Na5L/eN9jyMPWQXgSmVGWD4cjbsRFONI+LiWIx+AETY6Xpn+no6XEkvQCCJCLn6fBgdMjTP3JcdUytoVZ8nDDzyrIxp8HTavNe9yoOPohlks5KUG6l743Zef79JwWl87ExVzphQXNuj10liNspihNqw7TR7Y8hedxsVwbv+WOSudlE5nFwqZ4TWTdvBE2LWrGyfrnxApztBCgxeHqSiZravf2EBmf4/5pILnyA/eoeBT8CDjfA58FjydZGrAU/harWzYtXLgg+v9N4DnD7VB4I0z+R2XK3K4LBohbezRcfjHFsrvbtoie3aZIoEfvFnzYCpHwkdn48wT2+cimCb3OyhvvP6unHPm5chd42T65Bw4XRHg4h7LhQoeNX1SNo6lgAkOiCOVFM38jy7I0FuqjyN4aZwij9/FTCuU3IxGueqyX8mOr/dITw8rUALhuByBg3RoSwE0QLD9QYAY/j//7FtZsWw9HK8A1WcrQm6jI16sr0Fh4Io5XnWIFbmt4gm3NqedCQv8DOxwHcHjZ8TQztnW1117k5SVtJjrr+Xz4jBmqrwOpQE8M7Fg5uHhc+SHz4Lnd76WJk6rN9AFK6T7/fvBGy7Hs/AZx5uAImXc0ak6QTMloUwuPO9ncLsd0rOXq7KY1xEor2Wh050YbnHm80PX1f/Ic/r68Bh8Sb+98Q58IPNl9BFREjUVRQOAnhGeB/Dy4VwACpo2KUt/juf+KtGEsUR/R+iY3xFC/pwSV4n76IYQ8r2EqCLh/iEcrtq1y0wM6Md77N7LAoiubEDkMkUzemKLgAOaF3Ja/Y033K7jlZnppahqyyQ/px6QtCM3Y95XiTxtmTxw3xPy+acmzbCOp3PzkNfR5XjCMcwy79vPzwa/5+twHPtPjzwj69aerLken5trNFhg1XASAYCjQsHHfM/kfBCAswqGjyHXhl1OMm3GZ20XFVlxZVsggB6EhO97BM/IgGdkwPNkwLPwMfzmCTcHCp+Qh/eQhsozXnjlwQfvNxepY0XY28suvmkpmJBqwoyGG05/4gfOxyIn2r2LMze+1kscJcYWyORxyahUC+FUbNNk6zEhqgSwcT1HNsIt3BC/T+GmPjHc+AcFB8SNf5Kd+3jk43nMTm2QuBmFqBjrdefyd976B1xpn1aVXXsIHgsLgndAQz6hsL03DrFxxym+V7ZNLr/0WgUvNakYBUYNQmM7nrdJ0pJLkQM2yokbz9EJqRxj1sYyoDJOaooXtox0PxbAp3v7sbp2Pov33v1Ubv7t3YBppsJXVsyxYQBXQXUYDQefA6DfAXkdjiHwKYDWAefB9QjcXJ8sfB6ENgSz6PiewLMKrmoD4TNtFAtfvrZcGGbNiAUAnJQp1//8bvnwvR0KHj9IVocciDdu54FnZ23wg9bRDBw//XiX3HTjFv0CJ4xJQHgsRo5XCNfjhFMWGIWqWE4snc4NgjgZtACuRpdjAcFLHRQAODhfrIGOUPI+Houy2yQ1oUJmTMtEXlatQ11ffLZL2yW8bgUnEhjw4MAD7CtyejxPGArvFXBY+B579Fl8wbMAHy9lWilmi1teW7cWP+P9JBXJrb+7D3lhF6BGKoFcl5+HcTYWMrahzD4mx4zp/vy8OBt7v3zw/ue6D11lOcN5PY7tgK/DlQsgFBI+R34A/fAFAjgXrjcX8HlqpXwOaED03G+E4DGMhgJtqAx4RkP7eE4vD1WsEQAdmy1jOFsEoWz54pPllZc/1O0nGJJ4hhMuNk9NPsd2gkmq6XYcMtPiA18kG7tP/mWbcIlfFECZMi4Nbkany1Lw6FrxM4okehpDbh6gLDUgRhYqaOncshbgqQvi7xN4NSDAl5aA4gN/R/DyM5vxcwWq70zda4/XeHj6ya36+rahbMZv6UB8n2YEgvkYRyN040f8T4Tng/d4idLb8MXP1IY192kuzOVVIlsQbqv1+Y9dc6rwYn3M8zif0BZaZooWwcNzAT72+NhW4c/6meF9fPvNHrn9tntk0YLVkplRAtdr0suhEsAACEPA56p6qAtq3ueDT1UP8BS+TlecVhYAouOCFsDvAB6PwQoFHqQNZI5WED5PCp6OWFDOCMb4HICXJNyE5g93PqHbTvDs5lnLBqzmSXA4ezkAU8UyxDL3MyGWj3/j1S/kikt+q+O8XL/ByaTs3WkuhxDLPC4ugnvv5Ztcz8nrWHQw50tDXscjc0H27eIii/Vv2MvjY5n7ZSbVAcAKiYng+o8cyc2qk2uvuUU++8cuAx/EIsj0Gfk+CQNPFrZ59sIFOfzFnHAfwNgrr237UFavOAmhtlb3aeZee3lwPv5MFywvaZPzz7lar6HBQoshneAx7yNg6oAAz/bzmFfy9yxydu/ulnff+UguOP8yqShvQPiu1ov2VZa16cRRP3wm9A4Hn88Bh3G+xvpOuB7Xf8wBdJQDn5UDobogxNA7AvBM0RCokYIXCF/gkBl+Ny4LBUWGjp9uOuES2fk1QMKZzS+RZzd3TOrp5VpWnNH9HJFwmsQauswXTfDY0L3ltw9La+Nq+eF/xSBnZBgtRuUK+KbkwsGKAVUZgCuAkPOhyo2LYK5nqtn4SFa0rGTZ62PLBW4IIHl/Shyq3NhKuCLbKyw4uOlPmcTDEcMnp8uq5SfLw398zm19cFlld7d9r2z3GA0M7sH/sBfADGrPjTOP9+45ID//2S34MpbohAjO28tMr0W4rUfFO1PzVK7oevyxv5rpYPhfbbg1Id2KRceATg+j4/b19uvQG9/PlnsfkOXL1khebqmUFNXheTmWa+ELCrsOfKoqH4Q++Pxh17gfIQR4Ct8clR8+F0DH+Yz7jRi8PCgUfEHgOavLhh+rhQCcEV8nVX74f0Xq3m633PSQzvxgMs3KjGc12we9vV2AD46iywmZ3zkhi18Aww4e+9Xn/bJ+zXkoJjIRBkslYnIpgOOuooSHW9cCuvAiBTF2urkvckq+9vVsD8/cT2erlvSEOgBWofeZEQ2zvW08nieJm3rHVgG+Cl1uyWGv886+WrgPHk8WhsGuvdyKjOABhANwamj/QY6ucG3ubjgeRzU4geGAfPDu11rFs5rPzqh3lZvVoPke11Pw8utcY8IT0uazNmSbcEv4mJowj2SoZ75pCp133n5Prvv5LyU7q1Bdjy0cFzyf8w0Bz5EH3yHaLnUArt5ANxx8CqAfvNE/ioHrpEBm423u9s7ZIpMVvEKZcDShOwx4cDl37BbAETBuSzZ5LCcVZKi41DEcwHEUgQoDJJPxmlPGp8nlP75R3nr9S/1AdY2sU8UxcdYtW/s5KZJrHMxOmhw+sqFmx/Ze+c0NW6SscLaMPiIRRUKT7qMXOYWFArerrZA4HHlRZl5JiLd5n1450rmdEMndRnE7go1j9vFqAFwlgOXvzbBa4gwztKa7yxPEWApOGFemG10/+MDTuqOAcT2bi3YrcAcUOgA3sAeiK7EiNf8n3foPdz4mvCQAt8rl5ecLkOfxUvQ5mXU6vEYA/nDnI/LZpzv1+U04ZVQwebDnfGaEg+JtArlr1255/PEnZdHCZYCnTZvWxaiaCV1ZcQsKjwaEYAMjAaS78fX8VS+vLBkSPqfabcCR+/dxNrRfw4FIBxw15shYOEUaHA6AABRWmmHjCxS8SWMKAU0+4DoceAY6O1uFjsaliwY8AH10Om4TvkwJH58p0ybib+Gw0XAMLnJ+6vFX3RDLL4Nup2cxQqoZFmJ+xEFzMz+N+Qy/AEK69ZUPhGtVue6Wm4dz1gm3NIucUgbYkI85+ye7+yhPo5MZxU0HXFQE3cynSOR7kRxK85TI9RlWXI8ba5ZEzkCxkpFaJbwA80svvoo8zFSbOqR1gLt/7sXP3TKwbxdCLcDUoS7TeOb/wKKE/8OlF/0SOV4Dwi0vzNyilTkv0peRypVvpbJp47l6gWfmsxR7gnwtfR5WuVrpmjUhBjzzGfL2hx9+JL+47lcyd84yKcyrU9jKAVppUbO2WzjKwYYzYSRgCp4Tfl34IP4uOOQa+KC62dCsAHEjcg9CKwPivwE8iM4JCBhOp45nWOVOBCky7iiE9KOTFb4xP4yTvMxG+f1tOJM/2e2OaeqXoWcxPlTtyjNJN+ISQK5x1bMbj/ns02/ltt/dL9PCADb+B67F/dH/Ha/vX3eXguvNCDPXxvVUCrfzi4CWG7iiABWUFFVrFG2UrKqDE3oiePEMx5FFgA8n2pRkufGGO2T7Vzv1/fUgRejt2yWD+7lske0ght1u3Af3HsTJhJDMSxgQvF07B1EdbxPu5JmZWqn7Kmdn1MKZAGBuvbZWsjPL5Zqrb9QTs2vPgFtoqBzHs2E3WLxw38cffSobTzgNsPEaGjPNkBocjhUqnY977xE8AsmjrXZNCB4KXiB8gI4KAs/AF+yCBr4RgIejC58fwOHBm4TQOu7IFAVuOneDmogiYgzC+ehk1dgj4tTtVi3dLJ98tMsszMYXwA9TQ4l+iDyDbdPYVLa9KDQ4xZ0fJh/3p0eeluVLj9dLvodPYj8Q7wuvz60vuDm3XhdNL1tgLlfgXjNjupkw4Je9jIF3OQNOJvBkr59G8bKkGUlNei3c+OhSmR6eqSvTOEb6+F+eUxdiHsqczrg1cj64H2/v3vMNQjFTBQ6pOf833P6Tj78FWL9FZbhAZ0BzXS77eRy/zc+p1bFdXgHxxee3oXBAjojPStsr/Kwgnqwc4eE2tmy18H6GdM359u/Tdb8333SnLF10HEJ4lZQCNoLHHI/OxzDLgkLvB3gEzg9fKNfz4MOxdhY001VDHeUHMND9DgveJAe8ySrkfio2iG2/zqlkAR6djrkcARzvgEfopk7k/anaW+Px6B9ESWP1YrnhF3eZ0IEPn0Nj3G9OczeAxelFZp4bh4c4NMSp7aa9wnbBRx98Jhdf9BNJScJJMZ7X6oiXSeOSZfJ45o0I63DVMCh8PF5/gl/ZeE/BykFBkqcFh18z9BIInqLCeTkEtlq4P1+tbuKdFAfXm4FqOTIbX1C7XHn5z+Bge7TKNMNavKwAc1SmCt0oPOCCOsPYAKMFCVyM7ZKtr7yra0vSU0oBQ4uz2WMp3KgFMObAedrk/HOv0CWR7HPyb7XAgEzex5yYOZ4HnoEPJzB+fnXbu3LZJddJVmaluhzzOkKnOR/zO0BlCw+CqBoRfBTB6/DJwucBaOAzAI4IvMljrACfMw5rRicc+LQgoVhYGE0aAwDGZeC5MvDlp0v4hHSZBleiJo9NlvPOuEbefv1zbUP09HDBNYd++IGZrryOPwI8uh7dg6MXzFf4AXJc9I7b75FZHQtl7OipcvSRU+XIH06Vo46YLuPGxMroH0XJ0T+cIWOOiIa7xshYFFCeYmUs/mdPcTL+6HgAmS7TJ8OhHUVQU7ICFBmWreLlEXhdDr2UQaIpCHj50KlTEjWP2rb1TdPO2I8vHukC81Kd1KBzBjmpgf8b8zKONAzi/+nXJZh08Z//7Lca9tIBnI7j5tYCilYUG5USPSMN0JTIU0++jKIB8DrQ+UXgTMQw0nXAHN/FazGs/+nhF4T7rhA4iq/FPM+6HkHiMQA+R8HwqbTggGpmQvh7R/XUMO5Hff/gobCgy2jFOg55HqGDJo1JQo4Xhy8tU9obl8v9f3hG9u5igkyw2Ok3EwH0EuqQ2XSH7QGewSZkMC8y61a75NZb7sLZf6mcuPFMvcY9xzZPOelCOZnaBJ14oWzeeAHEo6eTVRepTqFOvFh16ibqx3Ka1UnUJXK61Wary6StcYVO4YqPKkeBgSo4oVwip8FhJyVIQV61nH7a+fLWm+8BKo4p07H3yd69u2XPHraFzAnF/3nvXoRfLQZYjRoQ//7Km3Lh+VdL5PRUSU5k4VKsx4K8GuR5ZThW4vkvkL++9JqBCbDSMf3ux+cy1+wghE6bBY8jeO+89YX87Ke/U4gKcuu0AcxiIw/hnEdWtf5cz1UI+FwAq3GsZkXsKQBCB0A/iCMGb4oq38gZezVDYbZBzF6daZmweGDVGgbwpk6E48FN6D5jjoiS9EQkyVfdIu+8vl0XzXDw3IxGmFyOK8U4zmnm3rFqM9OdePYydyKoe3b3yN/++qo889TL8uwzf5OnnnhJnn36FXnu2b/jvr9BuP303+WFZ7ZC24boRatnX3X1/NNbXb1g5X+soxeeeU2uvvJm4YbX8dHIDaOKoUJddB4blS1J8XlSmF8t9215RL7e/q3CwffOFlB39178DzzJzG4EPT3GFa2zc7yVV3F8+MEn9cvjUFdKUh7cr1ByszlLuRLgVeHL65Cbfnsnnr/LzRG5WxZvEzaOB/ciitjX1jYLH4e88NuvB+Tvf/tAr8bDEEunY6FB6Chu/FjhuF0AeIeEj2KoRlVcTTnwWVkHtAJ8IwLPm0XM21Qo+Ax4rGTZNpk4OgUAMrQiz5qQJkf81zQ8ZxLcbpm8/vfP4HY4A3mWMuQ4M4kJIHfa5Nisuh1CrkmYTc7CD5IfoLslGc9w56znGc8PlqvyeyHt8vODH6n4pTk6yOe2Cn4c7ntj26dy5aU3CzfyjgjP0RwvLjpfWx8xUchvx0bI+eddBvd6zcDAv8N7pfNw1jJdnf+jWcBjckGO5XKdBXcreO+dT+XSS67BF90Mt8vREYfM9CINs3k5FZKYkCUnnXimXgzQ5oj8TPr6GCEI3gFNXzzwzOfGIo77x3DX0ysuvV7djss4me8RKB6zkf8xz2PvjkeVHWYbFj7cBni8CpFeiUjhCwIQwPn1T4Lnhy8QPK1qkd9NHotKc4JxO+Z0R/6v6VJe2C5XX36z7PwKHxL++b5uhhec/fv2yOB+9ru8SQBmGMiEIQUOXziPhIwFiftl4mdeEbu/n5ByGhW+UCTZCgnBHKEOcAInG7IQb1sIVQTQJ05I+OsLH+p+d/HRxbrtBbeqiI/Jk5gZmZIYnyOVFc3I136tg/W6vhfvhyfR7t2o4jVfxf8J4Hp690h3D3t8HGZDJYyTbOe33cgT35E5s5ZIbHSaOmhOVpkqN7sMr1WIpL9ZzjrzYt2nhVDxM7EnJD8b+/n4wWOo5f/DEaIXn3tTNp94gYJH52PIJEzMK5n3ESgeqUPBpwJ41ZWADsWPhc+D0Au/LojfDTw/dMHgGeiM0zGfS0OliLALx5sE6JjbjTsqVjasPUte+/un0rMb/zwX8OBMJWRsrg4CvoPusBgTcm7jwH1L4Hb4EHlW64fqfLAuMPo7hmQCahYD2XB2kAWKK8DoFxzVFX4+gDzSFcM8/17lfw6Ir4338MUnvXLx+b/SBTXc34V9t4SYfMCXg6q0SNsfvCjwE48/L1178D/hbwZxQnA8lfP07NoRs4yRFS/DLhvjHGvdD2C74XpX40tql6TELLhdMdyuXJWTVSrpaQVayLz8EjcexwmL5/e7K8XXVOE+3q+fHcHDZ/nN9n657ZYHdM0w2zXcAoNwaUO5iA1lA53KdT4HPIjgBfb62rXqtuJlsDz4AgFU8MYemYAigJeDh1MBHLpX+ASClweAKDOlyZMNsX7xfpPrcd0t2ypsTxA8VoxjUWXmpFfJjb+8Uw7izBxETrIf/7x+iTo6wYkA3mWWOKVooJ87PCH5ZpKMxxFAPWN9H2ygOBHS5Eo2jFmAdMq8Hx5Kk3yf9DGhHhcEKRyE77t7D68c9L6sWblJoiPSAVuxJMTmSCKUllyIYoPb5bagULhKtn+52x1xGEA4JAD7kbtyPTBhO3AAwOneykg58JoEhaMSzzz9opxy8lmoZpOR7zHPo+sRvHJJSsgFEM1y1eXXy9tvfqafjd/lzWfGE5EnpQnBvE9PAOe9vLbtPfnJlb9A5VypYby0uAFu1gLw6gFiPaBj1Qvp9hh0Pv84L3uAxvkIYFUFm86tgBCqpPwQDnXBUdw5iZtgT5tIgFAYjMsFNEXqfLp80edm5sifCZkfQrqfcUBOfeJ2s+yNTZvINbrxMmF0jJx/1lWy9a9vay5Fx9BV+Vo0UAY4I3z5Kv8XT6gg5EgHWP0OkedSBzjaYcW1CSOQ+3ojEt4Pv1x+sTh5fnPDLdLc0IEQmwKlotDIgOtlSXoyXC8qS0rhJG9s+1j6kVvxf+7di3CIz2A/wnlfT4++z0Hktb2cCAEAtcjC/800g9OnOLskMyMfYBRJRlqh9i3Tkou1sczlkYV5DfLQA89p7uaHj5Dx71mcsaruH2A+adIWpiQ93dyZoV9ef+0dpAX1+holxTUAhcVFo5SVcgyXwu0SOiAhNCMcnK7FVWzcq4V7MRsYOdePTWnki4DPr1Agjjryv+Jl/FGoPsdzVIJulaW3CZjZx5jA0RFNX84DkPBZ6LwQzF0H+Dy8JOj4o5MkZnqudDQvlb88+oLs3IE8zvlgDuJD8MIYneZ7lgvwSOQH6/BSYBGS+T/8/a+vyNlnnCtjR09EvsdNvXndtCyJiciUGeHpkpVWIRef9zPZ9sqH6vZ0ejr+INflcgYJnmffIBd+I88d6AIcXEvSh9wPIRnwbdv2hpx37sVwuRJJiMsUXoyZu6JyB4L0lApJiiuWc8+8Wl56/m11Uj0h8DoM11x4pH1RvGcWMdqqQuVsOgXs7w3IZ599gZB+ubS1dgDufCktqVYAqdKSOgBXHwSfB56rIPAMfIEA+uFjGB71o/9C/nVkml4/liMOhMbuzK7wATSOQISxGaxHCODp3Dp1OP+yRQPehKM5YpAtR/8gRopyWuWaq26Wzz7GGe243SDDjRYA+FDwIYxUATnaCMQCZeTCa4xQ+/ClDXKqOfLKnTt2yT13bZGk+HRAwGvm5ksqEvaoaRmAL0vSEkukorhNbrvpAelCJU/H141/2P5g/or/az9TgwHms90AxOR/LEAI3jff7JJnn3lZWps7EV5z4HQlkptVo8VMWnK5pCSWCq/O/cuf3yH9yJvpehY8c/kqvIZzwrCRrCMqiBw8+Vns7Nq5S15++RXZdOIpkpNTiByyRIqLOGm0DqEXsuAVA7ziZtym6xE8P3zM/whesyM/fB6ABj4D4KixR6QqYBwwty7Hi9xFcAMdwDdpjAMc8jUOQbFdYubTcRp78KoxKh9/kyVjj0iS0T+MlQWzN8jrW01BYUPsnl178SExIWYViQ9+hDqIx6tjjkAsNPihj1Tathmh+vv6ESbhTPhi+T+99dp7cvz6zXChIgCXKjkZlZISXwToeOmqYhl9RIQ2o9954ws5wNwWf8PCqqerF6AAZrjefg6joaiiA9NRTVMdjwUgLE64ULswr1amhSVLXrYZKcmA4xXmNQO+Elm/9nT58rO92jIxOST+rsuZycN0BCeMpizMUR1xeM32+37965ukvq5F0lKzAVyNVCHkKnjF9Zr7cfNHBU/VAvmdj7kf8sAyhulA+EK5HzWKLmcv164b8uBnXlmRV9EmiBOOYiN4pOAVSOTkEg3VPxg1QyoKO+XnV/9e9u5EMo6znSGGZ3xfN8ILzvZQwBxWDNPfQaZ7f3jxi2LL5nByK0X8H3bnqK5d/fLq1ndl7szlEhGWIrGRWZIUWyiJ0YUSG8Ht1zJkZssKueG6O6W3C+/L+TuG227A0d+LkxD5ab9enJnj0Wy1cCwWoOOx7Ek+8/Qrsnb1STo6wtyOc/VYSXPqVFx0nnDC6NVX/lo++dgsidTRDIRajvTQ6Sx0OpKBE5gtJ4JHV+T//9STz8nJm89Q8PJyShFqa7V/yEKjpKgBagR8TRCB5HCbgY8r2BRCgFde2qSyAHogehAaEAGeKSbYLuEsE4KVIxGTCoXXGmM4ZajlSIQnZ3SC4Zib7nD/Ewrg8ciig9fC4OyU00+6Wl5+FrkNPoQBnIlazeKDZJ6jiTC+wJBwfU/imTxSuUCNRBY6aB/DJkIc/7efXPYrqUKyPXVSiiRE5UtSDKfcFyLnK5T0xApZMm+DvPz8W7LrGzgbnofw9XWjuOB6YLyHQZ2ZzIVNzDtZ2dJdTW+OewP+4tpbpKigQZdAcvoUZyhzfQYdj6vVWpsXymOPPo/HIkzjM+b/xVEM5nUEzoDHE4jRwHcy4XGffvKl3H3XfdLe1onXqNIKWsErpDhnz4GviFuhmXFeha+I8OGo+V8jwKMAn1+Ezy/AN4phle424SgO5hsII1HVEkA6V8SkfJ3RET6BfTmKQ2Lcv5h5oA887gqA4+j/naLPlZfeLn+852Xp+hb/LEcR8CEzzPCL4m0FEFL4/g3ScIPX0ebqCDQErkOIYZITV/l/ELq+vbiN/+Xl596SUzddAvBQ3UbmS0pcGYDjBkDlOIGTkfuVyqUXXifvvP6ZQsu/1/eKoy0MrBsRGuZpdt4dX/eZp7YKt1zjVrncTZTQUQSQW6pxI8nLLrlWL41Pp+RzqmMyVcFzqLvjSNh4WyMCf3Y+g/fe/UQuvugqaayfiSq3WIoL2d+rc+TAhyqdQ2zceoPgcbcCQqg5oBYhFj4DoAthmSeG4lE2l6NLzeA6BeR6hJFhl+BFhRcDPIJmofODlwfY/PChQBmdLQWZs+Sqi2+X917fLfvodBC/GFvV8cv6p6HjlzUS4bH84EcsfAF+tzyk8Hj7GjzyZOrdA1f6clB+d+MDkpnCFWtFkhRdKukJqD4TqyQxqljSEsqloWquPPbQCzpkSGAJICHu6WKxgs8Fz8fwx4sqExr+rDN48NiPP/xWttzzuHBLsYLcJinIadTq1qgcIbhceOGVu37/oILKEE2gLGS8zelnOnMZt/kYBZPfCcQLP7/4wlY5bt1mdbuighqoFuJtwtfgyIOvpLBFb5dqKGYuaFswFkIDn190wFEMqaxktQWCEMv8jtCNPzLdtFYm5AJAghYCOnU8P3j5Mu5H6ZKR2CwXnnWj/OaXD8rdtz0p9/7+Sbnnjj/LvXc+JlvuelR+f+t9cu9dD8p99/xJ7rnzYeiR76BHRyA87i7o7pGLi7NHKj733Xc8JHff/jD+H/xPd/9F7vn9n3H7SbnonOukMLvF7EYQU2G2wHAWhifHlkpiTKHOhLn95vvl/nvxmdz1EN7vA3Lv3X+U+7c8LPdteUj+cPd9ctutd8kfH3hMHnn4Kd01694//En+cNef5Prrfi8NNfM0t2OBQehMyEWxkVYGIGvlhA2n47EP4u/xnu7F+8Tzbbn3j/LA/Y/gvj/h+KgeefXvLfc+iOOjABqPu+sB/N0fZfHCNZKbUy6F+TWqonwLX70UI9RziK0YsFnRBf3geQB6EAY4IFxvlCkgOE2doZXrJLK0vWJhZN5H2AifEUHMc4Qw7KpAj6yS6ZyzW4+XjsY10tG8RuZ2HCuzWlfK7LYVMqdjucxuXyKdM5dCy2Vm61Jo2Yg0u41/u2Jk0msv8JqrPB5Gs1bI3NmrZO4cXpPr8OrE8+rzd6yUebOOkYVz1smizuNkxaKT8B6PkYKsVslMrtOlkVwSyfW6XI/LheORYZlSUdyOv1stq5aeIAs7V8ni+WtkJS+dvmStLFvCi8ytlM45S2TViuNk7ZoTZeXy42XZ4uPkmFWbZc3KzVJa2Cq8AlFaUpmCl5dVD/hqJC2FO5kW4Etv1C39163dhOdbK/PnLpPly9bKMWuOl2PXbpS1x5yA5z1eVq9aLyuWr8NxgyxfeqysxOtt3nSWcFFQZkaRjhEb+Dhlims16gGfA55fmv8RNlbAtgq28PndzwNwlM4cBmxcj0AnM03jbImZyh2VGDoZcgEcnU/F68xSzP0scI6c+/h8o/93ghz9v2Nl9A84HSpaxh4VLUf/cJoc9YNwmTY5UcYePU1+9L8my+gjpmu7YSQah+cYPzpmRJowhqvn4mTiuNgRKA7VYpKET04+rKZC08PSJGpapsREcFJouoRPTJHpkzNkRni2xEcWIbzCiQhebJWuzyV83AiIITc1gXlfGape9vrSJT46S1IS8iQ9mZdDzZbEuExJTsySzEyO92ZITFS6JOP3sXhcXDR/X4DH4jlSKlQELyuDc/WqId6GywK+hNhsHVpLTy0AkLmAoxoFA4qSjAJXbErn5ZRJRnoB3LJAx4ML86t0CI2yjkfwDHwALyR8zP0IHyvgQPj84HkAAjzrYMz1CJRtHvNn5npcqug5Hh/rd7xQMo3n8Udxa9tkmXB0kkwYnSgTxyQAiFgoWsImJAAKQHR0tEwamwAljkhM0P2aMo5KCVDYeEcToIn4vSPe5g7yVuGoPF1NBjjh6RIRnhGoqRRSEJ8ioahpWRIznRv+5En0tByJmpqNYy7uywd4xQixCK0IsVwEzoXkBI87TaXE8X5OmweMsYUSH5WD0JsryXF5Cl9SHC/il61TobiNGWe5JOC+ZICUGM/d6AsAYRGqWgMe+3iZqU6Ol07oKgEUgEwtkdTkQtwGVGnFOtTGmS3ZmSU69GZUjPtKtXrlOC2VjZ857cqAx00ja1TsHxr46iDCx50JqEZHgeCFAtADkSvcGmXUdOR0zOtUAI1yXc0BKTDMHgo8tlhynD5flun7af+PM5HTDAwqfPkT4DATUoXz9bjNxD+j6dTkbFcR1BRHYfgdwppfEeGOFKAsTwCJW1JER+QGKhIwReYFiJejj5tRoPupWCVQKB640xS3NksEbNz2guI2GEkAkUrW3adKARpCYlyxNplT4guNErjbfD6q1QJJTYKSeSzEkaChMEku0TaKQpcMJ0sOAi/NGUrjJkAqU2yoMglXqcJH0Iy4Ayknl/plnC4YvAKCpwJ4Kgc+K+Z+rHq172d7f4eCT8Er8MBz4PPCqRVgCwizw4vuGAheEHzjUwEdBafRdRiEKPufEjdX5MaLVhHUFLi1Cr8Lgi8iPMtVJFzKr6jpuRKlwMHFfOJ1L4LFrcoMdNwIiFteGOiMzP573BTIA8/ID14ywEuOI3hWDnyJnAgA4JKKHBWrDHQGPBe+YPBc+AyADLuuMsvheJzZ4kFnReCClZ/jB284+Kz7seiwbZfDw2fA46iFH76Q4I1EDpwAz6uA2YJxGs/OpFC/pk6g2wEincny3cUtKfyKmMyUAZpC4fdhFj4jAx3cEIqcmhMgBW96nisDXr7KAGeumUvFRgI85HIWPAOfB52Cp4IDRiOsOuCZ7c8AHaXgwfWGwAcl4jZkoeNqs9QkQIdiwoBXrgoJXgCAhK7SUQXAqwB4hI9HQEdlVwYoD8BZ5efWqAooBz4rhU9Dr5Fpt/j7fhZCD0ALIcOtAc+Bzw27TsgdOYTWESmCZ+Fzms68Uk8IcbnhtIm5/7SmT8oLEJvdnBWjgusNBc9Ax+nqQ8Cb5kFnZKAz8qAz4CHxRy7HfI67TakIXgB8vF2s8BE4I952wIs14KnrufARPEJnrrFBGegMeKkET+FzwINY3XIUQxUMoON+WRTg47T2HMJnpfABOJ/ysgEdRfByqo1yqw18Phn382RaLlyE7hNALCF8Vo4T0vVGRQA6aojzBQEYqLwgAQRHujcKoFMFrGelCJtfdDtChOf4J2SAy3dlwMP/Y8FzXc+IwFlFcrNGn7gVBWELll6UxVEMnC6GGzs64FkpgNzyzIXPQGfAg6KNOISmInQ+8PzipAJeWYjDYFYcpTAq8+BLMvBlpFQqfAbAYPfDbRQdRh58dD4rTrNypfBVGSmA1UYWQBfEQAjphlr1arOZTWcrA5/fCS18OnLBxrHf+QLg488TfAr4fTAMhAjgAaiRaJpOQP13gYffBYDnQRcRHghd5NQ8BW/GtHyVB16BitcgiwZwVgpfRCj4jLTY0IKjCMA5ijFKsooFaH5Z+AAeN2rUqwsllBoBOkrhA3RWhM8PnguflULIJjMvZ1AN8Ezl6w+9BkRP3GUgx4WPLRgPPr9sGDaqhuvZ1kugDIyOG/rgM+A58LkAati1EFJsrXBU418Bj/f7Q7JxyKHPMXIdHjyGW8JnxC0uCJ0BLy9A3PTHgucCOM2AZ+BzwMPRBc+Vhc+rdONRgOgEgagCgFcI6HCM4ZE7kEKxVCgAAV08csF4FCIJZQDPygefz/lsP48VbiB8gE1VA/AoA591P7ZdTNEBCAPg40VfOBpCALnIyHNA44IMw0EQaiGCcOyT13y2AHoQEr5RkRa8YPgCAMR9rvgzvmgVvlwVvmAKCb5J/BlCrfAznc2C5te/4HbU9+d4CLUKnyN1PyrQ/dT5IAuelcKn4ZfVriMAFx+VD/A4I5k7kEIKn1ESpfD5ZcEDdD4NhY+TBBzwkg14Bj6Apw5owQNwrvCzhl5A57ZcfMVHAHxGCp/rgE4eaOFTAD1pHphHAK0sfB6A/hAM8Io88Bz4XPBUhK3ISH/n/z2/cAuAAc9s0mMVDJd1yuEc87vp0ODhvXyHHM8vD7zQeV8M4PPAMxt6Ezoj9vjyFbr4qDyAB0UbGfg8Gfj8AnzI+7jnXiB8DLk+AB3nCwCPx2SCV+XID16tOWroBXCUC58NvX6ZEOyCx9uAzi1GbAXsg499P78sfCHdDxoVOaVIp0EdEjxVMHj2Cx8peMHQWfF39nHfTd5rGxnwHCl4BM5WtbaiDV3VeiJ4fvkrXQMiXY/XziB0RgUKnEobzHmAD4rKBXiQA57CF0P54YOGgIcK2IWPYRfSfC/I+RQ801YZCh7kul4I8Fz46ICB0JkQ7OV/w4Fnwy9vM9wa6HwNaB+AnvsZCEfNIHhTOAfPyMAH1wiQAdKtfodAR1nwggHxu1QgdBqmg/72u8t7DxGU28tjExnu5o5kUACLAngzEG5DiuAh3Eb5hZDLbdWsODQWG+ETm8pWQ8AjcCbceiGX8odcBzoFD3mfwgfFM+z6pAWHT6h4bUPZ39vzy4Zek/uVAzhOLDAbAmWm+2RHOVQc6TANZ6scK9v/swpoQvtGQXLt0JuRPwwTPoAH4IJkwlVo+aHzgAqGzS//4wL1/YAXWmYUI1CRKC6suLv7cOLO8H4Z4JDfqSx4eQDOKI4CaH4xzHqh1kLn5XgueBY4n7g/HqUQxhslUwmseCneLgJ8wX0+hl9vdIMyEwoIJK+VVuqM3RYDPM5aDlIGJxFQ5jaH2bhRkF8GvkCZkRDKG5Kzi89dKYhG3Hho1IywQqE88AqMQkDHEDbE7YJgGrlCA/N9KRi8SB94Mw4BXhQVDJ5e1dsPHoCLyAV0nuKoGZQDniNTXBS48uDzVbha5bLCteDh91BSPH72yQLnV2CT2cgbXvPEPfe4Qi0jjetzjbgfS2Y6IPRLoTMieAa+EAAGwGe31zCTDlzlBAGYW+4Hr0jBU/lcLzR8Tv7kwucAGBKswyk0MN+X/t3gxRC8iJzDwxcE3qHhM7LgjQS+oSMcoeFLT+Emj3Q7D7zh4TMAWvBCwRcKvBwFLxA+TrsaAl9ehQXPyg+eB59fQ53Pg+87KwQw35f+O8CLIXgh4fOFXCjY9Tz4DHgufCHAOxx8FrzDw1ci6S54hSOAz0yVGg4+FzY/eFmcARPkeiHgo+uNigoCLyR8Pvmdbwh8/5RCg/Ov6r8LvMPB57qe1SHgU6HQSIjF46BDwWcB9IN3aPgAXkqx7rVHfR/wDYXQgGfgGz7s5sP1RvFK1a588IUqOlwAffCpAgAcqf6HgzedF+DLBnjZBjy/LHwKYK6CFwCflQufBdDctuAFw6cABkEYyvkUwGAIOacvpcgFzwVQIRwGPifXUwAVwuHh4yTS7KwSQEcBPoBn5YfPAjgqOrwYH7aVhc8BELD5FQCgG3YdCAGTVWjQgvU/FzzONo7mxFGCp/AZ5/Pcz8BnATSuZ5wvAEKtdgGUCx+gCwIvJHwhwDu8+/nBKwiEz+d+Bj4HQB94Cp/P/Qx8wSpR+Z3PQhjsfqOip/rBM/B5odcvP3gGPg88v0JBFkr/7wBvePiGD7uB8Jmwa8Sf8bsY5IWHgU8BjBu+2HDh4+wWCx5nM6dwDQbBGx4+F8Ag8ILhGwqhAc/AFwRgEHwKXiB8/rAbCF4gfP6wGwjeyPU/GLxpBrpDw5cTAN7w8FGB4I0YviDXCw0f3S8QvJDwKYB++GzIHT7sGhkg/eAdDj6Ax2v1cyG3kQvfEPAc+ADdocPuSGXgCwXN96H/FvCmZYWAzwPQzfd84HnweQB6zsejB95I4AsVckPCl8S1G4UB4IWELxR4oeALAR4XEI0UPgc8Ry54UEjwHAWAZ+ALDdeh5ANv8vevfzd4UQCPq81CwxfofP7eXiB8hwfvcPBZ8A4PX5GuPAsGLxi+YcELgi8w5BrorA4LHzQqZhovuWThM2HXC70m7HrQBbudge5QhcYhZcdVv3cRPOi7gGfvhxQ+vxQ+T1FTuaSRV/42Sx0VPp8UPhfC7CHgDZ/r8fjdHM/qUAAacQERV6/lu0pLoXwAKoSe+/k1tAAJBhL3ZXBJJY6ZgfJDacEEeLzGl4Evxu9+TvgNDLsmzztchRu6mAhWKGC+R7mTBEYO3nC/iwr3OyBBzJEZAG8GwXPgswrlgKHzPA++7wM86tDwcfVaIHjDwxcawAD4AgC0twEeZQF0dAjwrPzgGfhCh10/eMHwhYIslELA8n3q/2DwPPgOD953gc8P3lD4uHqtQC/YkppMjQS+QACHVL4ufJQDXQj47AJyv0bxaoZ+8ELCFwK8UPD9/+CFBs9tq/gADBVu9XZ0IHTfH3weeCOBz4XwMPAZBUEXAr7gkDsqdjovozkUPi/sernekHwvIOzC9XzwjVwhoPk+9H8UeE5164NPwXMBpAgejgQPiovOPSx8fh0KPlVCgSQn5rvgfRf4KH/+NxQ+5770AgBHDQ+fBXBUnF6v1bmOqyMXQAufrXSdfM/KBTCk8x1O/x8CT9sqBr7gprLnfp4IndX3B58fvNwg+DwADXx++eALqH5DyWz+EwAeNSTnK5b/B5YWoqk4R0CkAAAAAElFTkSuQmCC;" vertex="1" parent="1">
          <mxGeometry x="-524.86" y="-980" width="63.71" height="50" as="geometry" />
        </mxCell>
        <mxCell id="vWSoqRxwltatWeiuWFKI-27" value="&lt;b&gt;&lt;font style=&quot;font-size: 11px&quot;&gt;AWS Amplify&lt;/font&gt;&lt;/b&gt;" style="text;html=1;strokeColor=none;fillColor=none;align=center;verticalAlign=middle;whiteSpace=wrap;rounded=0;" vertex="1" parent="1">
          <mxGeometry x="-508.14" y="-900" width="40" as="geometry" />
        </mxCell>
        <mxCell id="vWSoqRxwltatWeiuWFKI-29" value="" style="endArrow=none;html=1;" edge="1" parent="1">
          <mxGeometry width="50" height="50" relative="1" as="geometry">
            <mxPoint x="-680" y="-840" as="sourcePoint" />
            <mxPoint x="-680" y="-960" as="targetPoint" />
          </mxGeometry>
        </mxCell>
        <mxCell id="vWSoqRxwltatWeiuWFKI-31" value="" style="endArrow=none;html=1;" edge="1" parent="1">
          <mxGeometry width="50" height="50" relative="1" as="geometry">
            <mxPoint x="-680" y="-660" as="sourcePoint" />
            <mxPoint x="-680" y="-764" as="targetPoint" />
          </mxGeometry>
        </mxCell>
        <mxCell id="vWSoqRxwltatWeiuWFKI-36" value="" style="endArrow=classic;html=1;" edge="1" parent="1">
          <mxGeometry width="50" height="50" relative="1" as="geometry">
            <mxPoint x="-350" y="-660" as="sourcePoint" />
            <mxPoint x="-290" y="-660" as="targetPoint" />
          </mxGeometry>
        </mxCell>
        <mxCell id="vWSoqRxwltatWeiuWFKI-37" value="" style="endArrow=classic;html=1;" edge="1" parent="1">
          <mxGeometry width="50" height="50" relative="1" as="geometry">
            <mxPoint x="-466" y="-660" as="sourcePoint" />
            <mxPoint x="-400" y="-660" as="targetPoint" />
          </mxGeometry>
        </mxCell>
        <mxCell id="vWSoqRxwltatWeiuWFKI-38" value="" style="endArrow=classic;html=1;" edge="1" parent="1">
          <mxGeometry width="50" height="50" relative="1" as="geometry">
            <mxPoint x="-680" y="-660" as="sourcePoint" />
            <mxPoint x="-520" y="-660" as="targetPoint" />
            <Array as="points" />
          </mxGeometry>
        </mxCell>
        <mxCell id="vWSoqRxwltatWeiuWFKI-39" value="" style="endArrow=classic;html=1;" edge="1" parent="1" source="vWSoqRxwltatWeiuWFKI-25">
          <mxGeometry width="50" height="50" relative="1" as="geometry">
            <mxPoint x="-370" y="-760" as="sourcePoint" />
            <mxPoint x="-520" y="-799" as="targetPoint" />
            <Array as="points" />
          </mxGeometry>
        </mxCell>
        <mxCell id="vWSoqRxwltatWeiuWFKI-40" value="" style="endArrow=classic;html=1;" edge="1" parent="1">
          <mxGeometry width="50" height="50" relative="1" as="geometry">
            <mxPoint x="-680" y="-960" as="sourcePoint" />
            <mxPoint x="-526" y="-960" as="targetPoint" />
            <Array as="points" />
          </mxGeometry>
        </mxCell>
      </root>
    </mxGraphModel>
  </diagram>
</mxfile>
